<?xml version="1.0" encoding="UTF-8"?>
<svg id="Layer_1" xmlns="http://www.w3.org/2000/svg" version="1.1" viewBox="0 0 560.29 560.62">
  <!-- Generator: Adobe Illustrator 29.3.1, SVG Export Plug-In . SVG Version: 2.1.0 Build 151)  -->
  <defs>
    <style>
      .st0 {
        fill: #0c0d0e;
      }

      .st1 {
        fill: #070709;
      }
    </style>
  </defs>
  <polygon class="st1" points=".08 560.45 560.29 560.62 560.29 .01 0 .01 .08 560.45"/>
  <path class="st0" d="M231.49,477.64c0,15.8,12.81,28.61,28.61,28.61,7.81,0,14.9-3.14,20.04-8.22v62.41l-51.45-.11c5.08-5.15,8.22-12.23,8.22-20.04,0-15.8-12.81-28.61-28.61-28.61s-28.61,12.81-28.61,28.61c0,7.81,3.13,15.01,8.21,20.16h-47.83v-62.43c-5.15,5.09-12.24,8.23-20.06,8.23-15.8,0-28.61-12.81-28.61-28.61s12.81-28.61,28.61-28.61c7.82,0,14.91,3.14,20.06,8.23v-36.66h1.41s46.44-.34,46.44-.34c-5.09-5.15-8.23-12.24-8.23-20.06,0-15.8,12.81-28.61,28.61-28.61s28.61,12.81,28.61,28.61c0,7.82-3.14,14.91-8.23,20.06l49.96.33h1.5v36.65c-5.14-5.08-12.23-8.21-20.04-8.21-15.8,0-28.61,12.81-28.61,28.61Z"/>
  <path class="st0" d="M371.56,337.54c0,15.8,12.81,28.61,28.61,28.61,7.81,0,14.9-3.14,20.04-8.22v62.64l-51.45-.34c5.08-5.15,8.22-12.23,8.22-20.04,0-15.8-12.81-28.61-28.61-28.61s-28.61,12.81-28.61,28.61c0,7.81,3.13,14.89,8.21,20.04l-47.83.34v-62.65c-5.15,5.09-12.24,8.23-20.06,8.23-15.8,0-28.61-12.81-28.61-28.61s12.81-28.61,28.61-28.61c7.82,0,14.91,3.14,20.06,8.23v-36.66h1.41s46.44-.34,46.44-.34c-5.09-5.15-8.23-12.24-8.23-20.06,0-15.8,12.81-28.61,28.61-28.61s28.61,12.81,28.61,28.61c0,7.82-3.14,14.91-8.23,20.06l49.96.33h1.5v36.65c-5.14-5.08-12.23-8.21-20.04-8.21-15.8,0-28.61,12.81-28.61,28.61Z"/>
  <path class="st0" d="M0,280.51l47.85-.33c-5.09-5.15-8.23-12.24-8.23-20.06,0-15.8,12.81-28.61,28.61-28.61s28.61,12.81,28.61,28.61c0,7.82-3.14,14.91-8.23,20.06l49.96.33h1.5v36.65c-5.14-5.08-12.23-8.21-20.04-8.21-15.8,0-28.61,12.81-28.61,28.61s12.81,28.61,28.61,28.61c7.81,0,14.9-3.14,20.04-8.22v62.64l-51.45-.34c5.08-5.15,8.22-12.23,8.22-20.04,0-15.8-12.81-28.61-28.61-28.61s-28.61,12.81-28.61,28.61c0,7.81,3.13,14.89,8.21,20.04l-47.83.34"/>
  <path class="st0" d="M511.63,197.44c0,15.8,12.81,28.61,28.61,28.61,7.81,0,14.9-3.14,20.04-8.22v62.64l-51.45-.34c5.08-5.15,8.22-12.23,8.22-20.04,0-15.8-12.81-28.61-28.61-28.61s-28.61,12.81-28.61,28.61c0,7.81,3.13,14.89,8.21,20.04l-47.83.34v-62.65c-5.15,5.09-12.24,8.23-20.06,8.23-15.8,0-28.61-12.81-28.61-28.61s12.81-28.61,28.61-28.61c7.82,0,14.91,3.14,20.06,8.23v-36.66h1.41s46.44-.34,46.44-.34c-5.09-5.15-8.23-12.24-8.23-20.06,0-15.8,12.81-28.61,28.61-28.61s28.61,12.81,28.61,28.61c0,7.82-3.14,14.91-8.23,20.06l49.96.33h1.5v36.65c-5.14-5.08-12.23-8.21-20.04-8.21-15.8,0-28.61,12.81-28.61,28.61Z"/>
  <path class="st0" d="M560.28,357.9c-5.15,5.09-12.24,8.23-20.06,8.23-15.8,0-28.61-12.81-28.61-28.61s12.81-28.61,28.61-28.61c7.82,0,14.91,3.14,20.06,8.23"/>
  <path class="st0" d="M560.17,77.75c-5.15,5.09-12.24,8.23-20.06,8.23-15.8,0-28.61-12.81-28.61-28.61s12.81-28.61,28.61-28.61c7.82,0,14.91,3.14,20.06,8.23"/>
  <path class="st0" d="M231.49,197.49c0,15.8,12.81,28.61,28.61,28.61,7.81,0,14.9-3.14,20.04-8.22v62.64l-51.45-.34c5.08-5.15,8.22-12.23,8.22-20.04,0-15.8-12.81-28.61-28.61-28.61s-28.61,12.81-28.61,28.61c0,7.81,3.13,14.89,8.21,20.04l-47.83.34v-62.65c-5.15,5.09-12.24,8.23-20.06,8.23-15.8,0-28.61-12.81-28.61-28.61s12.81-28.61,28.61-28.61c7.82,0,14.91,3.14,20.06,8.23v-36.66h1.41s46.44-.34,46.44-.34c-5.09-5.15-8.23-12.24-8.23-20.06,0-15.8,12.81-28.61,28.61-28.61s28.61,12.81,28.61,28.61c0,7.82-3.14,14.91-8.23,20.06l49.96.33h1.5v36.65c-5.14-5.08-12.23-8.21-20.04-8.21-15.8,0-28.61,12.81-28.61,28.61Z"/>
  <path class="st0" d="M420.21.01v36.98c-5.14-5.08-12.23-8.21-20.04-8.21-15.8,0-28.61,12.81-28.61,28.61s12.81,28.61,28.61,28.61c7.81,0,14.9-3.14,20.04-8.22v62.64l-51.45-.34c5.08-5.15,8.22-12.23,8.22-20.04,0-15.8-12.81-28.61-28.61-28.61s-28.61,12.81-28.61,28.61c0,7.81,3.13,14.89,8.21,20.04l-47.83.34v-62.65c-5.15,5.09-12.24,8.23-20.06,8.23-15.8,0-28.61-12.81-28.61-28.61s12.81-28.61,28.61-28.61c7.82,0,14.91,3.14,20.06,8.23V.01"/>
  <path class="st0" d="M0,0v140.45l47.83-.34c-5.08-5.15-8.21-12.23-8.21-20.04,0-15.8,12.81-28.61,28.61-28.61s28.61,12.81,28.61,28.61c0,7.81-3.14,14.89-8.22,20.04l51.45.34v-62.64c-5.14,5.08-12.23,8.22-20.04,8.22-15.8,0-28.61-12.81-28.61-28.61s12.81-28.61,28.61-28.61c7.81,0,14.9,3.13,20.04,8.21V.01"/>
  <path class="st0" d="M511.63,477.59c0,15.8,12.81,28.61,28.61,28.61,7.81,0,14.9-3.14,20.04-8.22v62.64l-51.77-.02c5.08-5.15,8.54-12.55,8.54-20.36,0-15.8-12.81-28.61-28.61-28.61s-28.61,12.81-28.61,28.61c0,7.81,3.44,15.2,8.52,20.35h-48.14v-62.62c-5.15,5.09-12.24,8.23-20.06,8.23-15.8,0-28.61-12.81-28.61-28.61s12.81-28.61,28.61-28.61c7.82,0,14.91,3.14,20.06,8.23v-36.66h1.41s46.44-.34,46.44-.34c-5.09-5.15-8.23-12.24-8.23-20.06,0-15.8,12.81-28.61,28.61-28.61s28.61,12.81,28.61,28.61c0,7.82-3.14,14.91-8.23,20.06l49.96.33h1.5v36.65c-5.14-5.08-12.23-8.21-20.04-8.21-15.8,0-28.61,12.81-28.61,28.61Z"/>
</svg>