<?xml version="1.0" encoding="UTF-8"?>
<svg id="Layer_1" xmlns="http://www.w3.org/2000/svg" version="1.1" xmlns:xlink="http://www.w3.org/1999/xlink" viewBox="0 0 560.3 560.6">
  <!-- Generator: Adobe Illustrator 29.3.1, SVG Export Plug-In . SVG Version: 2.1.0 Build 151)  -->
  <defs>
    <style>
      .st0 {
        fill: #070709;
      }

      .st1 {
        fill: #0c0d0e;
      }
    </style>
  </defs>
  <polygon class="st0" points="0 560.6 560.2 560.8 560.2 .2 0 .2 0 560.6"/>
  <path class="st1" d="M231.5,477.6c0,15.8,12.8,28.6,28.6,28.6s14.9-3.1,20-8.2v62.4h-51.4c5.1-5.3,8.2-12.3,8.2-20.1,0-15.8-12.8-28.6-28.6-28.6s-28.6,12.8-28.6,28.6,3.1,15,8.2,20.2h-47.8v-62.4c-5.1,5.1-12.2,8.2-20.1,8.2-15.8,0-28.6-12.8-28.6-28.6s12.8-28.6,28.6-28.6,14.9,3.1,20.1,8.2v-36.7h1.4l46.4-.3c-5.1-5.1-8.2-12.2-8.2-20.1,0-15.8,12.8-28.6,28.6-28.6s28.6,12.8,28.6,28.6-3.1,14.9-8.2,20.1l50,.3h1.5v36.6c-5.1-5.1-12.2-8.2-20-8.2-15.8,0-28.6,12.8-28.6,28.6h-.1Z"/>
  <path class="st1" d="M371.6,337.5c0,15.8,12.8,28.6,28.6,28.6s14.9-3.1,20-8.2v62.6l-51.5-.3c5.1-5.1,8.2-12.2,8.2-20,0-15.8-12.8-28.6-28.6-28.6s-28.6,12.8-28.6,28.6,3.1,14.9,8.2,20l-47.8.3v-62.6c-5.1,5.1-12.2,8.2-20.1,8.2-15.8,0-28.6-12.8-28.6-28.6s12.8-28.6,28.6-28.6,14.9,3.1,20.1,8.2v-36.7h1.4l46.4-.3c-5.1-5.1-8.2-12.2-8.2-20.1,0-15.8,12.8-28.6,28.6-28.6s28.6,12.8,28.6,28.6-3.1,14.9-8.2,20.1l50,.3h1.5v36.6c-5.1-5.1-12.2-8.2-20-8.2-15.8,0-28.6,12.8-28.6,28.6h0Z"/>
  <path class="st1" d="M0,280.5l47.8-.3c-5.1-5.1-8.2-12.2-8.2-20.1,0-15.8,12.8-28.6,28.6-28.6s28.6,12.8,28.6,28.6-3.1,14.9-8.2,20.1l50,.3h1.5v36.6c-5.1-5.1-12.2-8.2-20-8.2-15.8,0-28.6,12.8-28.6,28.6s12.8,28.6,28.6,28.6,14.9-3.1,20-8.2v62.6l-51.4-.3c5.1-5.1,8.2-12.2,8.2-20,0-15.8-12.8-28.6-28.6-28.6s-28.6,12.8-28.6,28.6,3.1,14.9,8.2,20L0,420.6"/>
  <path class="st1" d="M511.6,197.4c0,15.8,12.8,28.6,28.6,28.6s14.9-3.1,20-8.2v62.6l-51.5-.3c5.1-5.1,8.2-12.2,8.2-20,0-15.8-12.8-28.6-28.6-28.6s-28.6,12.8-28.6,28.6,3.1,14.9,8.2,20l-47.8.3v-62.6c-5.1,5.1-12.2,8.2-20.1,8.2-15.8,0-28.6-12.8-28.6-28.6s12.8-28.6,28.6-28.6,14.9,3.1,20.1,8.2v-36.7h1.4l46.4-.3c-5.1-5.1-8.2-12.2-8.2-20.1,0-15.8,12.8-28.6,28.6-28.6s28.6,12.8,28.6,28.6-3.1,14.9-8.2,20.1l50,.3h1.5v36.7c-5.1-5.1-12.2-8.2-20-8.2-15.8,0-28.6,12.8-28.6,28.6h0Z"/>
  <path class="st1" d="M560.3,357.9c-5.2,5.1-12.2,8.2-20.1,8.2-15.8,0-28.6-12.8-28.6-28.6s12.8-28.6,28.6-28.6,14.9,3.1,20.1,8.2"/>
  <path class="st1" d="M560.2,77.8c-5.2,5.1-12.2,8.2-20.1,8.2-15.8,0-28.6-12.8-28.6-28.6s12.8-28.6,28.6-28.6,14.9,3.1,20.1,8.2"/>
  <path class="st1" d="M231.5,197.5c0,15.8,12.8,28.6,28.6,28.6s14.9-3.1,20-8.2v62.6l-51.4-.3c5.1-5.1,8.2-12.2,8.2-20,0-15.8-12.8-28.6-28.6-28.6s-28.6,12.8-28.6,28.6,3.1,14.9,8.2,20l-47.8.3v-62.6c-5.1,5.1-12.2,8.2-20.1,8.2-15.8,0-28.6-12.8-28.6-28.6s12.8-28.6,28.6-28.6,14.9,3.1,20.1,8.2v-36.7h1.4l46.4-.3c-5.1-5.1-8.2-12.2-8.2-20.1,0-15.8,12.8-28.6,28.6-28.6s28.6,12.8,28.6,28.6-3.1,14.9-8.2,20.1l50,.3h1.5v36.7c-5.1-5.1-12.2-8.2-20-8.2-15.8,0-28.6,12.8-28.6,28.6h-.1Z"/>
  <path class="st1" d="M420.2,0v37c-5.1-5.1-12.2-8.2-20-8.2-15.8,0-28.6,12.8-28.6,28.6s12.8,28.6,28.6,28.6,14.9-3.1,20-8.2v62.6l-51.5-.3c5.1-5.1,8.2-12.2,8.2-20,0-15.8-12.8-28.6-28.6-28.6s-28.6,12.8-28.6,28.6,3.1,14.9,8.2,20l-47.8.3v-62.7c-5.1,5.1-12.2,8.2-20.1,8.2-15.8,0-28.6-12.8-28.6-28.6s12.8-28.6,28.6-28.6,14.9,3.1,20.1,8.2V0h140.1Z"/>
  <path class="st1" d="M0,0v140.4l47.8-.3c-5.1-5.1-8.2-12.2-8.2-20,0-15.8,12.8-28.6,28.6-28.6s28.6,12.8,28.6,28.6-3.1,14.9-8.2,20l51.5.3v-62.6c-5.1,5.1-12.2,8.2-20,8.2-15.8,0-28.6-12.8-28.6-28.6s12.8-28.6,28.6-28.6,14.9,3.1,20,8.2V0H0Z"/>
  <path class="st1" d="M511.6,477.6c0,15.8,12.8,28.6,28.6,28.6s14.9-3.1,20-8.2v62.6h-51.8c5.1-5.2,8.5-12.6,8.5-20.4,0-15.8-12.8-28.6-28.6-28.6s-28.6,12.8-28.6,28.6,3.4,15.2,8.5,20.3h-48.1v-62.6c-5.1,5.1-12.2,8.2-20.1,8.2-15.8,0-28.6-12.8-28.6-28.6s12.8-28.6,28.6-28.6,14.9,3.1,20.1,8.2v-36.7h1.4l46.4-.3c-5.1-5.1-8.2-12.2-8.2-20.1,0-15.8,12.8-28.6,28.6-28.6s28.6,12.8,28.6,28.6-3.1,14.9-8.2,20.1l50,.3h1.5v36.6c-5.1-5.1-12.2-8.2-20-8.2-15.8,0-28.6,12.8-28.6,28.6h0v.2h0Z"/>
  <path class="st1" d="M328,560.6c-5.1-5.2-8.2-12.2-8.2-20.1,0-15.8,12.8-28.6,28.6-28.6s28.6,12.8,28.6,28.6-3.1,14.9-8.2,20.1"/>
  <path class="st1" d="M47.9,560.6c-5.1-5.2-8.2-12.2-8.2-20.1,0-15.8,12.8-28.6,28.6-28.6s28.6,12.8,28.6,28.6-3.1,14.9-8.2,20.1"/>
</svg>
